<svg xmlns="http://www.w3.org/2000/svg" width="1840" height="1280" viewBox="0 0 1840 1280"><defs><pattern id="checker" width="20" height="20" patternUnits="userSpaceOnUse"><rect width="20" height="20" fill="#fff"/><rect width="10" height="10" fill="#ddd"/><rect x="10" y="10" width="10" height="10" fill="#ddd"/></pattern><filter id="silhouette"><feColorMatrix values="0 0 0 0 0 0 0 0 0 0 0 0 0 0 0 0 0 0 1 0"/></filter></defs><rect width="100%" height="100%" fill="#ece9e2"/><text x="28" y="44" font-family="Arial" font-size="28" font-weight="700">fuzz-fanged · human MVP-fidelity review</text><text x="28" y="74" font-family="Arial" font-size="14">Stable IDs · baseline/current scores · human confirmation: pending</text><g transform="translate(24 106)"><rect width="240" height="250" rx="12" fill="#f2ead8" stroke="#777" stroke-opacity=".35"/><svg viewBox="0 0 600 600" width="220" height="220" x="10" y="10" overflow="hidden"><g transform="" ><image href="hero-fidelity-fuzz-fanged-cream.svg" width="600" height="600" preserveAspectRatio="xMidYMid slice"/></g></svg><text x="12" y="232" font-family="Arial" font-size="13" font-weight="700" fill="#171512">Full composition</text><text x="12" y="247" font-family="Arial" font-size="10" fill="#171512" opacity=".65">cream</text></g><g transform="translate(282 106)"><rect width="240" height="250" rx="12" fill="#f2ead8" stroke="#777" stroke-opacity=".35"/><svg viewBox="0 0 600 600" width="220" height="220" x="10" y="10" overflow="hidden"><g transform="" filter:url(#silhouette)><image href="hero-fidelity-fuzz-fanged-cream.svg" width="600" height="600" preserveAspectRatio="xMidYMid slice"/></g></svg><text x="12" y="232" font-family="Arial" font-size="13" font-weight="700" fill="#171512">Silhouette only</text><text x="12" y="247" font-family="Arial" font-size="10" fill="#171512" opacity=".65">cream</text></g><g transform="translate(540 106)"><rect width="240" height="250" rx="12" fill="#f2ead8" stroke="#777" stroke-opacity=".35"/><svg viewBox="110 120 380 220" width="220" height="220" x="10" y="10" overflow="hidden"><g transform="" ><image href="hero-fidelity-fuzz-fanged-cream.svg" width="600" height="600" preserveAspectRatio="xMidYMid slice"/></g></svg><text x="12" y="232" font-family="Arial" font-size="13" font-weight="700" fill="#171512">Eyes / expression crop</text><text x="12" y="247" font-family="Arial" font-size="10" fill="#171512" opacity=".65">cream</text></g><g transform="translate(798 106)"><rect width="240" height="250" rx="12" fill="#f2ead8" stroke="#777" stroke-opacity=".35"/><svg viewBox="90 300 420 260" width="220" height="220" x="10" y="10" overflow="hidden"><g transform="" ><image href="hero-fidelity-fuzz-fanged-cream.svg" width="600" height="600" preserveAspectRatio="xMidYMid slice"/></g></svg><text x="12" y="232" font-family="Arial" font-size="13" font-weight="700" fill="#171512">Mouth / jaw crop</text><text x="12" y="247" font-family="Arial" font-size="10" fill="#171512" opacity=".65">cream</text></g><g transform="translate(1056 106)"><rect width="240" height="250" rx="12" fill="#f2ead8" stroke="#777" stroke-opacity=".35"/><svg viewBox="80 70 440 180" width="220" height="220" x="10" y="10" overflow="hidden"><g transform="" ><image href="hero-fidelity-fuzz-fanged-cream.svg" width="600" height="600" preserveAspectRatio="xMidYMid slice"/></g></svg><text x="12" y="232" font-family="Arial" font-size="13" font-weight="700" fill="#171512">Horn / ear roots</text><text x="12" y="247" font-family="Arial" font-size="10" fill="#171512" opacity=".65">cream</text></g><g transform="translate(1314 106)"><rect width="240" height="250" rx="12" fill="#f2ead8" stroke="#777" stroke-opacity=".35"/><svg viewBox="0 0 600 600" width="220" height="220" x="10" y="10" overflow="hidden"><g transform="translate(240 0) scale(-1 1)" ><image href="hero-fidelity-fuzz-fanged-cream.svg" width="600" height="600" preserveAspectRatio="xMidYMid slice"/></g></svg><text x="12" y="232" font-family="Arial" font-size="13" font-weight="700" fill="#171512">Flipped view</text><text x="12" y="247" font-family="Arial" font-size="10" fill="#171512" opacity=".65">cream</text></g><g transform="translate(1572 106)"><rect width="240" height="250" rx="12" fill="#f2ead8" stroke="#777" stroke-opacity=".35"/><svg viewBox="0 0 600 600" width="96" height="96" x="72" y="60" overflow="hidden"><g transform="" ><image href="hero-fidelity-fuzz-fanged-cream.svg" width="600" height="600" preserveAspectRatio="xMidYMid slice"/></g></svg><text x="12" y="232" font-family="Arial" font-size="13" font-weight="700" fill="#171512">Thumbnail view</text><text x="12" y="247" font-family="Arial" font-size="10" fill="#171512" opacity=".65">cream</text></g><g transform="translate(24 396)"><rect width="240" height="250" rx="12" fill="#fff" stroke="#777" stroke-opacity=".35"/><svg viewBox="0 0 600 600" width="220" height="220" x="10" y="10" overflow="hidden"><g transform="" ><image href="hero-fidelity-fuzz-fanged-white.svg" width="600" height="600" preserveAspectRatio="xMidYMid slice"/></g></svg><text x="12" y="232" font-family="Arial" font-size="13" font-weight="700" fill="#171512">Full composition</text><text x="12" y="247" font-family="Arial" font-size="10" fill="#171512" opacity=".65">white</text></g><g transform="translate(282 396)"><rect width="240" height="250" rx="12" fill="#fff" stroke="#777" stroke-opacity=".35"/><svg viewBox="0 0 600 600" width="220" height="220" x="10" y="10" overflow="hidden"><g transform="" filter:url(#silhouette)><image href="hero-fidelity-fuzz-fanged-white.svg" width="600" height="600" preserveAspectRatio="xMidYMid slice"/></g></svg><text x="12" y="232" font-family="Arial" font-size="13" font-weight="700" fill="#171512">Silhouette only</text><text x="12" y="247" font-family="Arial" font-size="10" fill="#171512" opacity=".65">white</text></g><g transform="translate(540 396)"><rect width="240" height="250" rx="12" fill="#fff" stroke="#777" stroke-opacity=".35"/><svg viewBox="110 120 380 220" width="220" height="220" x="10" y="10" overflow="hidden"><g transform="" ><image href="hero-fidelity-fuzz-fanged-white.svg" width="600" height="600" preserveAspectRatio="xMidYMid slice"/></g></svg><text x="12" y="232" font-family="Arial" font-size="13" font-weight="700" fill="#171512">Eyes / expression crop</text><text x="12" y="247" font-family="Arial" font-size="10" fill="#171512" opacity=".65">white</text></g><g transform="translate(798 396)"><rect width="240" height="250" rx="12" fill="#fff" stroke="#777" stroke-opacity=".35"/><svg viewBox="90 300 420 260" width="220" height="220" x="10" y="10" overflow="hidden"><g transform="" ><image href="hero-fidelity-fuzz-fanged-white.svg" width="600" height="600" preserveAspectRatio="xMidYMid slice"/></g></svg><text x="12" y="232" font-family="Arial" font-size="13" font-weight="700" fill="#171512">Mouth / jaw crop</text><text x="12" y="247" font-family="Arial" font-size="10" fill="#171512" opacity=".65">white</text></g><g transform="translate(1056 396)"><rect width="240" height="250" rx="12" fill="#fff" stroke="#777" stroke-opacity=".35"/><svg viewBox="80 70 440 180" width="220" height="220" x="10" y="10" overflow="hidden"><g transform="" ><image href="hero-fidelity-fuzz-fanged-white.svg" width="600" height="600" preserveAspectRatio="xMidYMid slice"/></g></svg><text x="12" y="232" font-family="Arial" font-size="13" font-weight="700" fill="#171512">Horn / ear roots</text><text x="12" y="247" font-family="Arial" font-size="10" fill="#171512" opacity=".65">white</text></g><g transform="translate(1314 396)"><rect width="240" height="250" rx="12" fill="#fff" stroke="#777" stroke-opacity=".35"/><svg viewBox="0 0 600 600" width="220" height="220" x="10" y="10" overflow="hidden"><g transform="translate(240 0) scale(-1 1)" ><image href="hero-fidelity-fuzz-fanged-white.svg" width="600" height="600" preserveAspectRatio="xMidYMid slice"/></g></svg><text x="12" y="232" font-family="Arial" font-size="13" font-weight="700" fill="#171512">Flipped view</text><text x="12" y="247" font-family="Arial" font-size="10" fill="#171512" opacity=".65">white</text></g><g transform="translate(1572 396)"><rect width="240" height="250" rx="12" fill="#fff" stroke="#777" stroke-opacity=".35"/><svg viewBox="0 0 600 600" width="96" height="96" x="72" y="60" overflow="hidden"><g transform="" ><image href="hero-fidelity-fuzz-fanged-white.svg" width="600" height="600" preserveAspectRatio="xMidYMid slice"/></g></svg><text x="12" y="232" font-family="Arial" font-size="13" font-weight="700" fill="#171512">Thumbnail view</text><text x="12" y="247" font-family="Arial" font-size="10" fill="#171512" opacity=".65">white</text></g><g transform="translate(24 686)"><rect width="240" height="250" rx="12" fill="#111" stroke="#777" stroke-opacity=".35"/><svg viewBox="0 0 600 600" width="220" height="220" x="10" y="10" overflow="hidden"><g transform="" ><image href="hero-fidelity-fuzz-fanged-black.svg" width="600" height="600" preserveAspectRatio="xMidYMid slice"/></g></svg><text x="12" y="232" font-family="Arial" font-size="13" font-weight="700" fill="#fff">Full composition</text><text x="12" y="247" font-family="Arial" font-size="10" fill="#fff" opacity=".65">black</text></g><g transform="translate(282 686)"><rect width="240" height="250" rx="12" fill="#111" stroke="#777" stroke-opacity=".35"/><svg viewBox="0 0 600 600" width="220" height="220" x="10" y="10" overflow="hidden"><g transform="" filter:url(#silhouette)><image href="hero-fidelity-fuzz-fanged-black.svg" width="600" height="600" preserveAspectRatio="xMidYMid slice"/></g></svg><text x="12" y="232" font-family="Arial" font-size="13" font-weight="700" fill="#fff">Silhouette only</text><text x="12" y="247" font-family="Arial" font-size="10" fill="#fff" opacity=".65">black</text></g><g transform="translate(540 686)"><rect width="240" height="250" rx="12" fill="#111" stroke="#777" stroke-opacity=".35"/><svg viewBox="110 120 380 220" width="220" height="220" x="10" y="10" overflow="hidden"><g transform="" ><image href="hero-fidelity-fuzz-fanged-black.svg" width="600" height="600" preserveAspectRatio="xMidYMid slice"/></g></svg><text x="12" y="232" font-family="Arial" font-size="13" font-weight="700" fill="#fff">Eyes / expression crop</text><text x="12" y="247" font-family="Arial" font-size="10" fill="#fff" opacity=".65">black</text></g><g transform="translate(798 686)"><rect width="240" height="250" rx="12" fill="#111" stroke="#777" stroke-opacity=".35"/><svg viewBox="90 300 420 260" width="220" height="220" x="10" y="10" overflow="hidden"><g transform="" ><image href="hero-fidelity-fuzz-fanged-black.svg" width="600" height="600" preserveAspectRatio="xMidYMid slice"/></g></svg><text x="12" y="232" font-family="Arial" font-size="13" font-weight="700" fill="#fff">Mouth / jaw crop</text><text x="12" y="247" font-family="Arial" font-size="10" fill="#fff" opacity=".65">black</text></g><g transform="translate(1056 686)"><rect width="240" height="250" rx="12" fill="#111" stroke="#777" stroke-opacity=".35"/><svg viewBox="80 70 440 180" width="220" height="220" x="10" y="10" overflow="hidden"><g transform="" ><image href="hero-fidelity-fuzz-fanged-black.svg" width="600" height="600" preserveAspectRatio="xMidYMid slice"/></g></svg><text x="12" y="232" font-family="Arial" font-size="13" font-weight="700" fill="#fff">Horn / ear roots</text><text x="12" y="247" font-family="Arial" font-size="10" fill="#fff" opacity=".65">black</text></g><g transform="translate(1314 686)"><rect width="240" height="250" rx="12" fill="#111" stroke="#777" stroke-opacity=".35"/><svg viewBox="0 0 600 600" width="220" height="220" x="10" y="10" overflow="hidden"><g transform="translate(240 0) scale(-1 1)" ><image href="hero-fidelity-fuzz-fanged-black.svg" width="600" height="600" preserveAspectRatio="xMidYMid slice"/></g></svg><text x="12" y="232" font-family="Arial" font-size="13" font-weight="700" fill="#fff">Flipped view</text><text x="12" y="247" font-family="Arial" font-size="10" fill="#fff" opacity=".65">black</text></g><g transform="translate(1572 686)"><rect width="240" height="250" rx="12" fill="#111" stroke="#777" stroke-opacity=".35"/><svg viewBox="0 0 600 600" width="96" height="96" x="72" y="60" overflow="hidden"><g transform="" ><image href="hero-fidelity-fuzz-fanged-black.svg" width="600" height="600" preserveAspectRatio="xMidYMid slice"/></g></svg><text x="12" y="232" font-family="Arial" font-size="13" font-weight="700" fill="#fff">Thumbnail view</text><text x="12" y="247" font-family="Arial" font-size="10" fill="#fff" opacity=".65">black</text></g><g transform="translate(24 976)"><rect width="240" height="250" rx="12" fill="url(#checker)" stroke="#777" stroke-opacity=".35"/><svg viewBox="0 0 600 600" width="220" height="220" x="10" y="10" overflow="hidden"><g transform="" ><image href="hero-fidelity-fuzz-fanged-transparent.svg" width="600" height="600" preserveAspectRatio="xMidYMid slice"/></g></svg><text x="12" y="232" font-family="Arial" font-size="13" font-weight="700" fill="#171512">Full composition</text><text x="12" y="247" font-family="Arial" font-size="10" fill="#171512" opacity=".65">transparent</text></g><g transform="translate(282 976)"><rect width="240" height="250" rx="12" fill="url(#checker)" stroke="#777" stroke-opacity=".35"/><svg viewBox="0 0 600 600" width="220" height="220" x="10" y="10" overflow="hidden"><g transform="" filter:url(#silhouette)><image href="hero-fidelity-fuzz-fanged-transparent.svg" width="600" height="600" preserveAspectRatio="xMidYMid slice"/></g></svg><text x="12" y="232" font-family="Arial" font-size="13" font-weight="700" fill="#171512">Silhouette only</text><text x="12" y="247" font-family="Arial" font-size="10" fill="#171512" opacity=".65">transparent</text></g><g transform="translate(540 976)"><rect width="240" height="250" rx="12" fill="url(#checker)" stroke="#777" stroke-opacity=".35"/><svg viewBox="110 120 380 220" width="220" height="220" x="10" y="10" overflow="hidden"><g transform="" ><image href="hero-fidelity-fuzz-fanged-transparent.svg" width="600" height="600" preserveAspectRatio="xMidYMid slice"/></g></svg><text x="12" y="232" font-family="Arial" font-size="13" font-weight="700" fill="#171512">Eyes / expression crop</text><text x="12" y="247" font-family="Arial" font-size="10" fill="#171512" opacity=".65">transparent</text></g><g transform="translate(798 976)"><rect width="240" height="250" rx="12" fill="url(#checker)" stroke="#777" stroke-opacity=".35"/><svg viewBox="90 300 420 260" width="220" height="220" x="10" y="10" overflow="hidden"><g transform="" ><image href="hero-fidelity-fuzz-fanged-transparent.svg" width="600" height="600" preserveAspectRatio="xMidYMid slice"/></g></svg><text x="12" y="232" font-family="Arial" font-size="13" font-weight="700" fill="#171512">Mouth / jaw crop</text><text x="12" y="247" font-family="Arial" font-size="10" fill="#171512" opacity=".65">transparent</text></g><g transform="translate(1056 976)"><rect width="240" height="250" rx="12" fill="url(#checker)" stroke="#777" stroke-opacity=".35"/><svg viewBox="80 70 440 180" width="220" height="220" x="10" y="10" overflow="hidden"><g transform="" ><image href="hero-fidelity-fuzz-fanged-transparent.svg" width="600" height="600" preserveAspectRatio="xMidYMid slice"/></g></svg><text x="12" y="232" font-family="Arial" font-size="13" font-weight="700" fill="#171512">Horn / ear roots</text><text x="12" y="247" font-family="Arial" font-size="10" fill="#171512" opacity=".65">transparent</text></g><g transform="translate(1314 976)"><rect width="240" height="250" rx="12" fill="url(#checker)" stroke="#777" stroke-opacity=".35"/><svg viewBox="0 0 600 600" width="220" height="220" x="10" y="10" overflow="hidden"><g transform="translate(240 0) scale(-1 1)" ><image href="hero-fidelity-fuzz-fanged-transparent.svg" width="600" height="600" preserveAspectRatio="xMidYMid slice"/></g></svg><text x="12" y="232" font-family="Arial" font-size="13" font-weight="700" fill="#171512">Flipped view</text><text x="12" y="247" font-family="Arial" font-size="10" fill="#171512" opacity=".65">transparent</text></g><g transform="translate(1572 976)"><rect width="240" height="250" rx="12" fill="url(#checker)" stroke="#777" stroke-opacity=".35"/><svg viewBox="0 0 600 600" width="96" height="96" x="72" y="60" overflow="hidden"><g transform="" ><image href="hero-fidelity-fuzz-fanged-transparent.svg" width="600" height="600" preserveAspectRatio="xMidYMid slice"/></g></svg><text x="12" y="232" font-family="Arial" font-size="13" font-weight="700" fill="#171512">Thumbnail view</text><text x="12" y="247" font-family="Arial" font-size="10" fill="#171512" opacity=".65">transparent</text></g></svg>